<svg id="FA_icon" data-name="FA icon" xmlns="http://www.w3.org/2000/svg" width="90" height="90" viewBox="0 0 90 90">
  <defs>
    <style>
      .cls-1 {
        fill: #c0301c;
        stroke: #ddd;
        stroke-width: 2px;
      }

      .cls-2 {
        fill: #fff;
        fill-rule: evenodd;
      }
    </style>
  </defs>
  <circle class="cls-1" cx="45" cy="45" r="45"/>
  <path id="fa-font" class="cls-2" d="M42.735,36.223A102.722,102.722,0,0,1,47.49,47.994c-0.491.026-.982,0.052-1.473,0.052-2.558,0-5.117-.078-7.675-0.1ZM24,65a27.765,27.765,0,0,0,4.858-.365,10.273,10.273,0,0,1,1.24-.208c3,0,6.021.52,9.019,0.52a6.434,6.434,0,0,0,.052-0.7c0-.52,0-1.015-0.026-1.511-1.473-.208-5.272-0.287-5.272-2.291,0-.99,2.61-7.812,3.282-9.323l11.629,0.052c0.413,1.068,3.747,8.8,3.747,9.739,0,0.964-1.37,1.146-2.067,1.3l-3.385.729a17.808,17.808,0,0,0-.1,2.031c3.385-.1,6.77-0.391,10.156-0.391,3.282,0,6.564.417,9.846,0.417,0-.235.026-0.443,0.026-0.677a9.651,9.651,0,0,0-.155-1.484c-1.215-.469-3.592-0.625-4.445-1.3a4.571,4.571,0,0,1-.9-1.484C60.2,57.4,59.3,54.609,58.136,51.9c-1.964-4.584-3.747-9.245-5.685-13.854l-5.3-12.5A5.582,5.582,0,0,0,46.87,25H43.562L36.326,43.854,30.2,59.9c-1.085,2.813-3.721,2.292-6.15,3.047Z"/>
</svg>
