<svg id="FA_icon" data-name="FA icon" xmlns="http://www.w3.org/2000/svg" width="90" height="90" viewBox="0 0 90 90">
  <defs>
    <style>
      .cls-1 {
        fill: #fff;
        stroke: #ddd;
        stroke-width: 2px;
      }

      .cls-2 {
        fill: #c0301c;
        fill-rule: evenodd;
      }
    </style>
  </defs>
  <circle class="cls-1" cx="45" cy="45" r="45"/>
  <path id="fa-code" class="cls-2" d="M35.6,57.724a0.931,0.931,0,0,0,0-1.334L24.254,45,35.6,33.608a0.93,0.93,0,0,0,0-1.333l-1.443-1.449a0.922,0.922,0,0,0-1.328,0L19.375,44.333a0.93,0.93,0,0,0,0,1.333L32.827,59.174a0.921,0.921,0,0,0,1.328,0ZM52.659,26.8a0.94,0.94,0,0,0-.635-1.159l-1.79-.493a0.917,0.917,0,0,0-1.126.638L38.341,63.2a0.94,0.94,0,0,0,.635,1.159l1.79,0.492a0.917,0.917,0,0,0,1.126-.637ZM71.625,45.666a0.93,0.93,0,0,0,0-1.333L58.173,30.826a0.922,0.922,0,0,0-1.328,0L55.4,32.275a0.93,0.93,0,0,0,0,1.333L66.746,45,55.4,56.391a0.931,0.931,0,0,0,0,1.334l1.443,1.449a0.921,0.921,0,0,0,1.328,0Z"/>
</svg>
