<svg id="FA_icon" data-name="FA icon" xmlns="http://www.w3.org/2000/svg" width="90" height="90" viewBox="0 0 90 90">
  <defs>
    <style>
      .cls-1 {
        fill: #fff;
        stroke: #ddd;
        stroke-width: 2px;
      }

      .cls-2 {
        fill: #c0301c;
        fill-rule: evenodd;
      }
    </style>
  </defs>
  <circle class="cls-1" cx="45" cy="45" r="45"/>
  <path id="fa-support" class="cls-2" d="M44.994,20.867A23.994,23.994,0,1,0,68.988,44.861,23.989,23.989,0,0,0,44.994,20.867Zm0,3.428a20.676,20.676,0,0,1,9.667,2.41l-5.2,5.2a13.708,13.708,0,0,0-8.944,0l-5.2-5.195A20.676,20.676,0,0,1,44.994,24.295ZM26.838,54.528a20.594,20.594,0,0,1,0-19.335l5.2,5.2a13.71,13.71,0,0,0,0,8.944Zm18.156,10.9a20.677,20.677,0,0,1-9.667-2.41l5.2-5.2a13.708,13.708,0,0,0,8.944,0l5.2,5.2A20.678,20.678,0,0,1,44.994,65.427Zm0-10.283A10.283,10.283,0,1,1,55.277,44.861,10.286,10.286,0,0,1,44.994,55.144Zm12.961-5.811a13.712,13.712,0,0,0,0-8.944l5.2-5.2a20.594,20.594,0,0,1,0,19.335Z"/>
</svg>
